{
	"asset":{
		"generator":"Khronos glTF Blender I/O v5.1.20",
		"version":"2.0"
	},
	"scene":0,
	"scenes":[
		{
			"name":"Scene",
			"nodes":[
				7
			]
		}
	],
	"nodes":[
		{
			"name":"Bone",
			"translation":[
				3.912425938779052e-12,
				3.234658718109131,
				-0.014421848580241203
			]
		},
		{
			"name":"Bone.001",
			"rotation":[
				-0.7057358026504517,
				-0.0012340357061475515,
				-0.708472490310669,
				0.0015028354246169329
			],
			"scale":[
				1,
				1,
				0.9999999403953552
			],
			"translation":[
				-0.01229929830878973,
				2.5893518924713135,
				-3.008878707885742
			]
		},
		{
			"name":"Bone.002",
			"rotation":[
				-1,
				0,
				-1.1920927533992653e-07,
				2.980232594040899e-08
			],
			"scale":[
				1,
				0.9999999403953552,
				0.9999999403953552
			],
			"translation":[
				3.912425938779052e-12,
				3.234658718109131,
				-0.014421848580241203
			]
		},
		{
			"name":"Bone.003",
			"rotation":[
				-0.7071338295936584,
				0.0004357167345006019,
				-0.7070794701576233,
				0.0004357211582828313
			],
			"scale":[
				0.9999999403953552,
				0.9999998807907104,
				0.9999999403953552
			],
			"translation":[
				2.569640287219954e-07,
				2.5279934406280518,
				3.0263140201568604
			]
		},
		{
			"name":"Bone.004",
			"rotation":[
				-0.7071067690849304,
				0.00016335342661477625,
				-0.7071067094802856,
				0.00016327688354067504
			],
			"scale":[
				1.0000001192092896,
				1.0000003576278687,
				1.000000238418579
			],
			"translation":[
				-4.249386620358564e-09,
				-3.906049966812134,
				1.0629664659500122
			]
		},
		{
			"name":"Bone.005",
			"rotation":[
				0.7071059346199036,
				0.0010313433595001698,
				0.7071061134338379,
				0.0010313597740605474
			],
			"translation":[
				4.1621177615525085e-09,
				-3.89365291595459,
				-1.0550121068954468
			]
		},
		{
			"mesh":0,
			"name":"Plane",
			"skin":0
		},
		{
			"children":[
				6,
				0,
				1,
				2,
				3,
				4,
				5
			],
			"name":"Armature",
			"rotation":[
				0,
				0.7071068286895752,
				0,
				0.7071068286895752
			],
			"translation":[
				0.03031197562813759,
				1.231492042541504,
				-0.0016988726565614343
			]
		}
	],
	"animations":[
		{
			"channels":[
				{
					"sampler":0,
					"target":{
						"node":0,
						"path":"translation"
					}
				},
				{
					"sampler":1,
					"target":{
						"node":0,
						"path":"rotation"
					}
				},
				{
					"sampler":2,
					"target":{
						"node":0,
						"path":"scale"
					}
				},
				{
					"sampler":3,
					"target":{
						"node":1,
						"path":"translation"
					}
				},
				{
					"sampler":4,
					"target":{
						"node":1,
						"path":"rotation"
					}
				},
				{
					"sampler":5,
					"target":{
						"node":1,
						"path":"scale"
					}
				},
				{
					"sampler":6,
					"target":{
						"node":2,
						"path":"translation"
					}
				},
				{
					"sampler":7,
					"target":{
						"node":2,
						"path":"rotation"
					}
				},
				{
					"sampler":8,
					"target":{
						"node":2,
						"path":"scale"
					}
				},
				{
					"sampler":9,
					"target":{
						"node":3,
						"path":"translation"
					}
				},
				{
					"sampler":10,
					"target":{
						"node":3,
						"path":"rotation"
					}
				},
				{
					"sampler":11,
					"target":{
						"node":3,
						"path":"scale"
					}
				},
				{
					"sampler":12,
					"target":{
						"node":4,
						"path":"translation"
					}
				},
				{
					"sampler":13,
					"target":{
						"node":4,
						"path":"rotation"
					}
				},
				{
					"sampler":14,
					"target":{
						"node":4,
						"path":"scale"
					}
				},
				{
					"sampler":15,
					"target":{
						"node":5,
						"path":"translation"
					}
				},
				{
					"sampler":16,
					"target":{
						"node":5,
						"path":"rotation"
					}
				},
				{
					"sampler":17,
					"target":{
						"node":5,
						"path":"scale"
					}
				}
			],
			"name":"ArmatureAction",
			"samplers":[
				{
					"input":13,
					"interpolation":"LINEAR",
					"output":14
				},
				{
					"input":13,
					"interpolation":"LINEAR",
					"output":15
				},
				{
					"input":16,
					"interpolation":"STEP",
					"output":17
				},
				{
					"input":13,
					"interpolation":"LINEAR",
					"output":18
				},
				{
					"input":13,
					"interpolation":"LINEAR",
					"output":19
				},
				{
					"input":16,
					"interpolation":"STEP",
					"output":20
				},
				{
					"input":13,
					"interpolation":"LINEAR",
					"output":21
				},
				{
					"input":13,
					"interpolation":"LINEAR",
					"output":22
				},
				{
					"input":16,
					"interpolation":"STEP",
					"output":20
				},
				{
					"input":13,
					"interpolation":"LINEAR",
					"output":23
				},
				{
					"input":13,
					"interpolation":"LINEAR",
					"output":24
				},
				{
					"input":16,
					"interpolation":"STEP",
					"output":25
				},
				{
					"input":13,
					"interpolation":"LINEAR",
					"output":26
				},
				{
					"input":13,
					"interpolation":"LINEAR",
					"output":27
				},
				{
					"input":16,
					"interpolation":"STEP",
					"output":28
				},
				{
					"input":13,
					"interpolation":"LINEAR",
					"output":29
				},
				{
					"input":13,
					"interpolation":"LINEAR",
					"output":30
				},
				{
					"input":16,
					"interpolation":"STEP",
					"output":17
				}
			]
		}
	],
	"materials":[
		{
			"doubleSided":true,
			"name":"Material"
		},
		{
			"doubleSided":true,
			"name":"Material.001"
		}
	],
	"meshes":[
		{
			"name":"Plane",
			"primitives":[
				{
					"attributes":{
						"POSITION":0,
						"NORMAL":1,
						"TEXCOORD_0":2,
						"JOINTS_0":3,
						"WEIGHTS_0":4
					},
					"indices":5,
					"material":0
				},
				{
					"attributes":{
						"POSITION":6,
						"NORMAL":7,
						"TEXCOORD_0":8,
						"JOINTS_0":9,
						"WEIGHTS_0":10
					},
					"indices":11,
					"material":1
				}
			]
		}
	],
	"skins":[
		{
			"inverseBindMatrices":12,
			"joints":[
				0,
				1,
				2,
				3,
				4,
				5
			],
			"name":"Armature"
		}
	],
	"accessors":[
		{
			"bufferView":0,
			"componentType":5126,
			"count":168,
			"max":[
				4.0479254722595215,
				7.790958881378174,
				1.911331295967102
			],
			"min":[
				-3.8780438899993896,
				-10.09927749633789,
				-1.868670105934143
			],
			"type":"VEC3"
		},
		{
			"bufferView":1,
			"componentType":5126,
			"count":168,
			"type":"VEC3"
		},
		{
			"bufferView":2,
			"componentType":5126,
			"count":168,
			"type":"VEC2"
		},
		{
			"bufferView":3,
			"componentType":5121,
			"count":168,
			"type":"VEC4"
		},
		{
			"bufferView":4,
			"componentType":5126,
			"count":168,
			"type":"VEC4"
		},
		{
			"bufferView":5,
			"componentType":5123,
			"count":252,
			"type":"SCALAR"
		},
		{
			"bufferView":6,
			"componentType":5126,
			"count":24,
			"max":[
				3.094141721725464,
				2.6046504974365234,
				1.3830609321594238
			],
			"min":[
				2.978024959564209,
				-6.521607398986816,
				-7.743196487426758
			],
			"type":"VEC3"
		},
		{
			"bufferView":7,
			"componentType":5126,
			"count":24,
			"type":"VEC3"
		},
		{
			"bufferView":8,
			"componentType":5126,
			"count":24,
			"type":"VEC2"
		},
		{
			"bufferView":9,
			"componentType":5121,
			"count":24,
			"type":"VEC4"
		},
		{
			"bufferView":10,
			"componentType":5126,
			"count":24,
			"type":"VEC4"
		},
		{
			"bufferView":11,
			"componentType":5123,
			"count":36,
			"type":"SCALAR"
		},
		{
			"bufferView":12,
			"componentType":5126,
			"count":6,
			"type":"MAT4"
		},
		{
			"bufferView":13,
			"componentType":5126,
			"count":124,
			"max":[
				5.166666666666667
			],
			"min":[
				0.041666666666666664
			],
			"type":"SCALAR"
		},
		{
			"bufferView":14,
			"componentType":5126,
			"count":124,
			"type":"VEC3"
		},
		{
			"bufferView":15,
			"componentType":5126,
			"count":124,
			"type":"VEC4"
		},
		{
			"bufferView":16,
			"componentType":5126,
			"count":2,
			"max":[
				5.166666666666667
			],
			"min":[
				0.041666666666666664
			],
			"type":"SCALAR"
		},
		{
			"bufferView":17,
			"componentType":5126,
			"count":2,
			"type":"VEC3"
		},
		{
			"bufferView":18,
			"componentType":5126,
			"count":124,
			"type":"VEC3"
		},
		{
			"bufferView":19,
			"componentType":5126,
			"count":124,
			"type":"VEC4"
		},
		{
			"bufferView":20,
			"componentType":5126,
			"count":2,
			"type":"VEC3"
		},
		{
			"bufferView":21,
			"componentType":5126,
			"count":124,
			"type":"VEC3"
		},
		{
			"bufferView":22,
			"componentType":5126,
			"count":124,
			"type":"VEC4"
		},
		{
			"bufferView":23,
			"componentType":5126,
			"count":124,
			"type":"VEC3"
		},
		{
			"bufferView":24,
			"componentType":5126,
			"count":124,
			"type":"VEC4"
		},
		{
			"bufferView":25,
			"componentType":5126,
			"count":2,
			"type":"VEC3"
		},
		{
			"bufferView":26,
			"componentType":5126,
			"count":124,
			"type":"VEC3"
		},
		{
			"bufferView":27,
			"componentType":5126,
			"count":124,
			"type":"VEC4"
		},
		{
			"bufferView":28,
			"componentType":5126,
			"count":2,
			"type":"VEC3"
		},
		{
			"bufferView":29,
			"componentType":5126,
			"count":124,
			"type":"VEC3"
		},
		{
			"bufferView":30,
			"componentType":5126,
			"count":124,
			"type":"VEC4"
		}
	],
	"bufferViews":[
		{
			"buffer":0,
			"byteLength":2016,
			"byteOffset":0,
			"target":34962
		},
		{
			"buffer":0,
			"byteLength":2016,
			"byteOffset":2016,
			"target":34962
		},
		{
			"buffer":0,
			"byteLength":1344,
			"byteOffset":4032,
			"target":34962
		},
		{
			"buffer":0,
			"byteLength":672,
			"byteOffset":5376,
			"target":34962
		},
		{
			"buffer":0,
			"byteLength":2688,
			"byteOffset":6048,
			"target":34962
		},
		{
			"buffer":0,
			"byteLength":504,
			"byteOffset":8736,
			"target":34963
		},
		{
			"buffer":0,
			"byteLength":288,
			"byteOffset":9240,
			"target":34962
		},
		{
			"buffer":0,
			"byteLength":288,
			"byteOffset":9528,
			"target":34962
		},
		{
			"buffer":0,
			"byteLength":192,
			"byteOffset":9816,
			"target":34962
		},
		{
			"buffer":0,
			"byteLength":96,
			"byteOffset":10008,
			"target":34962
		},
		{
			"buffer":0,
			"byteLength":384,
			"byteOffset":10104,
			"target":34962
		},
		{
			"buffer":0,
			"byteLength":72,
			"byteOffset":10488,
			"target":34963
		},
		{
			"buffer":0,
			"byteLength":384,
			"byteOffset":10560
		},
		{
			"buffer":0,
			"byteLength":496,
			"byteOffset":10944
		},
		{
			"buffer":0,
			"byteLength":1488,
			"byteOffset":11440
		},
		{
			"buffer":0,
			"byteLength":1984,
			"byteOffset":12928
		},
		{
			"buffer":0,
			"byteLength":8,
			"byteOffset":14912
		},
		{
			"buffer":0,
			"byteLength":24,
			"byteOffset":14920
		},
		{
			"buffer":0,
			"byteLength":1488,
			"byteOffset":14944
		},
		{
			"buffer":0,
			"byteLength":1984,
			"byteOffset":16432
		},
		{
			"buffer":0,
			"byteLength":24,
			"byteOffset":18416
		},
		{
			"buffer":0,
			"byteLength":1488,
			"byteOffset":18440
		},
		{
			"buffer":0,
			"byteLength":1984,
			"byteOffset":19928
		},
		{
			"buffer":0,
			"byteLength":1488,
			"byteOffset":21912
		},
		{
			"buffer":0,
			"byteLength":1984,
			"byteOffset":23400
		},
		{
			"buffer":0,
			"byteLength":24,
			"byteOffset":25384
		},
		{
			"buffer":0,
			"byteLength":1488,
			"byteOffset":25408
		},
		{
			"buffer":0,
			"byteLength":1984,
			"byteOffset":26896
		},
		{
			"buffer":0,
			"byteLength":24,
			"byteOffset":28880
		},
		{
			"buffer":0,
			"byteLength":1488,
			"byteOffset":28904
		},
		{
			"buffer":0,
			"byteLength":1984,
			"byteOffset":30392
		}
	],
	"buffers":[
		{
			"byteLength":32376,
			"uri":"mt2d_character3D.bin"
		}
	]
}
